<svg xmlns="http://www.w3.org/2000/svg" width="256" height="256" viewBox="0 0 100 100"><rect width="100" height="100" rx="20" fill="#4ab2a7"></rect><path fill="#fff" d="M21.91 84.27L21.91 84.27Q17.78 84.27 14.93 82.51Q12.07 80.75 10.36 78.07Q8.64 75.39 7.89 72.05Q7.15 68.71 7.15 65.55L7.15 65.55Q7.15 62.82 7.89 60.41Q8.64 57.99 9.26 57.11L9.26 57.11Q9.70 56.50 10.40 55.79Q11.10 55.09 12.42 54.83L12.42 54.83Q13.83 54.56 15.23 54.21L15.23 54.21Q16.46 53.95 17.65 53.77Q18.84 53.59 19.80 53.42L19.80 53.42Q18.49 54.91 17.61 56.85Q16.73 58.78 16.29 60.85Q15.85 62.91 15.67 64.84Q15.50 66.78 15.67 68.36L15.67 68.36Q15.94 72.75 18.27 75.52Q20.59 78.29 23.41 78.29L23.41 78.29Q25.60 78.29 27.19 77.02Q28.77 75.74 29.82 73.72Q30.88 71.70 31.49 69.06Q32.11 66.43 32.37 63.75Q32.64 61.07 32.72 58.47Q32.81 55.88 32.81 53.95L32.81 53.95Q32.81 50.69 32.50 46.83Q32.20 42.96 31.76 39.09Q31.32 35.23 30.83 31.75Q30.35 28.28 30.00 25.91L30.00 25.91Q26.48 26.44 24.02 27.23Q21.56 28.02 19.45 28.55L19.45 28.55Q18.49 28.72 18.22 28.19L18.22 28.19Q16.73 25.73 16.64 23.80Q16.55 21.87 16.82 20.90L16.82 20.90Q16.90 20.46 17.78 20.11L17.78 20.11Q20.95 19.05 25.96 18.09Q30.97 17.12 37.29 16.86L37.29 16.86Q39.05 16.86 40.63 16.94L40.63 16.94Q42.04 17.03 43.58 17.30Q45.12 17.56 46.35 18.09L46.35 18.09Q46.87 18.53 47.14 19.19Q47.40 19.84 47.58 20.55L47.58 20.55Q47.75 21.43 47.75 22.31L47.75 22.31Q47.75 23.27 47.58 24.24L47.58 24.24Q47.40 25.12 47.14 26.17Q46.87 27.23 46.43 28.28L46.43 28.28Q46.00 27.75 45.51 27.27Q45.03 26.79 44.15 26.39Q43.27 26.00 41.86 25.78Q40.46 25.56 38.09 25.47L38.09 25.47Q38.88 30.39 39.45 34.08Q40.02 37.77 40.41 41.29Q40.81 44.81 41.03 48.67Q41.25 52.54 41.25 57.81L41.25 57.81Q41.25 65.02 39.67 70.07Q38.09 75.13 35.40 78.29Q32.72 81.46 29.21 82.86Q25.69 84.27 21.91 84.27ZM52.67 35.14L52.67 35.14Q51.44 34.79 50.17 34.04Q48.90 33.29 47.88 32.28Q46.87 31.27 46.35 30.04Q45.82 28.81 46.08 27.40L46.08 27.40Q46.61 24.50 49.42 21.95Q52.24 19.41 56.98 17.91L56.98 17.91L56.98 17.65Q57.07 16.68 58.26 15.67Q59.44 14.66 61.20 14.31L61.20 14.31Q62.87 13.96 63.62 14.31Q64.36 14.66 64.36 15.27L64.36 15.27Q64.36 15.45 64.32 15.67Q64.28 15.89 64.28 16.07L64.28 16.07L64.28 16.50Q68.58 16.15 73.86 16.77L73.86 16.77Q80.18 17.56 84.14 19.76Q88.09 21.95 90.12 24.81Q92.14 27.67 92.62 30.74Q93.10 33.82 92.58 36.37L92.58 36.37Q92.05 39.36 90.64 41.77Q89.24 44.19 87.30 46.08Q85.37 47.97 83.00 49.38Q80.62 50.78 77.99 51.75L77.99 51.75Q80.80 52.36 82.78 53.73Q84.76 55.09 85.99 56.93Q87.22 58.78 87.74 61.07Q88.27 63.35 88.09 65.72L88.09 65.72Q87.92 69.42 86.21 72.62Q84.49 75.83 81.59 78.20Q78.69 80.58 74.69 81.90Q70.69 83.21 65.86 83.04L65.86 83.04L64.80 83.04Q63.49 84.18 61.95 84.75Q60.41 85.32 59.00 85.59L59.00 85.59Q57.42 85.94 55.84 85.85L55.84 85.85Q55.84 85.24 55.88 84.58Q55.93 83.92 55.93 83.30L55.93 83.30Q55.93 82.60 56.01 81.90L56.01 81.90Q54.96 81.72 53.99 81.37L53.99 81.37Q53.11 81.10 52.19 80.80Q51.27 80.49 50.57 80.14L50.57 80.14Q50.21 79.61 50.04 78.82L50.04 78.82Q49.86 78.12 49.82 77.28Q49.77 76.45 50.13 75.39L50.13 75.39Q52.85 76.45 56.37 76.97L56.37 76.97Q56.54 72.49 56.67 66.34Q56.81 60.19 56.81 53.42L56.81 53.42Q56.81 45.77 56.85 38.39Q56.89 31.01 56.89 25.73L56.89 25.73Q54.34 27.05 52.94 29.34Q51.53 31.62 52.67 35.14ZM79.75 66.16L79.75 66.16Q80.10 62.30 78.60 59.97Q77.11 57.64 74.69 56.45Q72.27 55.26 69.42 55.00Q66.56 54.74 64.28 54.91L64.28 54.91Q64.45 62.21 64.54 68.14Q64.63 74.07 64.72 77.85L64.72 77.85Q67.44 77.94 69.99 77.24Q72.54 76.53 74.60 75.04Q76.67 73.55 78.08 71.30Q79.48 69.06 79.75 66.16ZM64.10 23.71L64.10 23.71Q63.92 28.19 63.92 34.35Q63.92 40.50 64.10 48.06L64.10 48.06Q64.10 48.76 64.10 49.42Q64.10 50.08 64.19 50.78L64.19 50.78Q67.35 50.52 70.78 49.24Q74.21 47.97 77.06 45.86Q79.92 43.75 81.77 40.89Q83.61 38.04 83.61 34.61L83.61 34.61Q83.61 31.97 82.21 29.91Q80.80 27.84 78.47 26.44Q76.14 25.03 73.11 24.33Q70.08 23.62 66.83 23.62L66.83 23.62Q66.12 23.62 65.46 23.62Q64.80 23.62 64.10 23.71Z"></path></svg>